/* XPM */
static char *ts3d_icon[] = {
/* 32x32 TS3D application icon for e.g. PDCurses */
"32 32 6 1",
"! c black",
"` c white",
"3 c green",
"W c cyan",
"N c magenta",
"< c yellow",
"!!!!!!!!!!!!!!!!!!!!!!!!!!!!!!!!",
"!``````````````!!``````````````!",
"!`333333333333`!!```WWWWWWWW```!",
"!`333333333333`!!``WWWWWWWWWW``!",
"!`33```33```33`!!`WWW``````WWW`!",
"!`3````33````3`!!`WW```````````!",
"!``````33``````!!`WWW``````````!",
"!``````33``````!!``WWWWWWWWW```!",
"!``````33``````!!```WWWWWWWWW``!",
"!``````33``````!!``````````WWW`!",
"!``````33``````!!```````````WW`!",
"!``````33``````!!`WWW``````WWW`!",
"!`````3333`````!!``WWWWWWWWWW``!",
"!````333333````!!```WWWWWWWW```!",
"!``````````````!!``````````````!",
"!!!!!!!!!!!!!!!!!!!!!!!!!!!!!!!!",
"!!!!!!!!!!!!!!!!!!!!!!!!!!!!!!!!",
"!``````````````!!``````````````!",
"!```NNNNNNN````!!`<<<<<<<<`````!",
"!``NNNNNNNNNN``!!``<<<<<<<<<```!",
"!`NNN``````NNN`!!``<<````<<<<``!",
"!`NN```````NNN`!!``<<``````<<``!",
"!````````NNNN``!!``<<``````<<``!",
"!```````NNNN```!!``<<``````<<``!",
"!````````NNNN``!!``<<``````<<``!",
"!``````````NN``!!``<<``````<<``!",
"!`NN```````NNN`!!``<<``````<<``!",
"!`NNN``````NNN`!!``<<````<<<<``!",
"!``NNNNNNNNNN``!!``<<<<<<<<<```!",
"!```NNNNNNN````!!`<<<<<<<<`````!",
"!``````````````!!``````````````!",
"!!!!!!!!!!!!!!!!!!!!!!!!!!!!!!!!"
};
